# xmcd
#
# Track frame offsets:
#	300
#	13676
#	27593
#	42629
#	54875
#	70410
#	95361
#	107272
#	123175
#	136537
#	149590
#	165284
#	183214
#	194272
#	204724
#	223793
#	237401
#
# Disc length: 3423 seconds
#
# Revision: 1
# Processed by: cddbd v1.5.1PL0 Copyright (c) Steve Scherf et al.
# Submitted via: audiograbber 1.83.01
#
DISCID=ef0d5b11
DTITLE=Dismembered Tennesseans - Theft Proof
DYEAR=1900
DGENRE=Bluegrass
TTITLE0=Little Girl Of Mine In Tennessee
TTITLE1=Say, Won't You Be Mine
TTITLE2=Kentucky Waltz
TTITLE3=Big Country
TTITLE4=Someday When You're Lonely
TTITLE5=Who Will Watch The Homeplace?
TTITLE6=On And On
TTITLE7=Hot Springs
TTITLE8=Hold Watcha Got
TTITLE9=She's More To Be Pitied
TTITLE10=Heart Of The Heartland
TTITLE11=Gonna Settle Down
TTITLE12=Tennessee Waltz
TTITLE13=Cousin Sally Brown
TTITLE14=Monologue Of Frank McDonald
TTITLE15=Blue Ridge Mountain Home
TTITLE16=Monologue Of Frank McDonald
EXTD=
EXTT0=
EXTT1=
EXTT2=
EXTT3=
EXTT4=
EXTT5=
EXTT6=
EXTT7=
EXTT8=
EXTT9=
EXTT10=
EXTT11=
EXTT12=
EXTT13=
EXTT14=
EXTT15=
EXTT16=
PLAYORDER=
